<?xml version="1.0" encoding="UTF-8" standalone="no"?>
<svg
   xmlns:dc="http://purl.org/dc/elements/1.1/"
   xmlns:cc="http://creativecommons.org/ns#"
   xmlns:rdf="http://www.w3.org/1999/02/22-rdf-syntax-ns#"
   xmlns:svg="http://www.w3.org/2000/svg"
   xmlns="http://www.w3.org/2000/svg"
   xmlns:xlink="http://www.w3.org/1999/xlink"
   xmlns:sodipodi="http://sodipodi.sourceforge.net/DTD/sodipodi-0.dtd"
   xmlns:inkscape="http://www.inkscape.org/namespaces/inkscape"
   width="1920"
   height="1080"
   viewBox="0 0 507.99999 285.75001"
   version="1.1"
   id="svg8"
   inkscape:version="1.0.2 (e86c870879, 2021-01-15)"
   sodipodi:docname="preview.svg"
   inkscape:export-filename="/home/abraham/Documents/plymouth-theme-sweet-arch/preview.png"
   inkscape:export-xdpi="96"
   inkscape:export-ydpi="96">
  <defs
     id="defs2">
    <linearGradient
       id="_lgradient_1"
       x1="0"
       y1="0.5"
       x2="1"
       y2="0.5"
       gradientTransform="matrix(35.253,0,0,44.618,0.75,2.632)"
       gradientUnits="userSpaceOnUse">
      <stop
         offset="0%"
         stop-opacity="1"
         style="stop-color:rgb(255,229,59)"
         id="stop2" />
      <stop
         offset="98.69565217391305%"
         stop-opacity="1"
         style="stop-color:rgb(255,0,91)"
         id="stop4" />
    </linearGradient>
    <linearGradient
       inkscape:collect="always"
       xlink:href="#linearGradient946"
       id="linearGradient962"
       x1="254.66811"
       y1="151.52289"
       x2="294.28531"
       y2="173.38184"
       gradientUnits="userSpaceOnUse"
       gradientTransform="matrix(1.2201712,0,0,1.2201712,-61.818204,-36.227872)" />
    <linearGradient
       inkscape:collect="always"
       id="linearGradient946">
      <stop
         style="stop-color:#ff177e;stop-opacity:0.99607843"
         offset="0"
         id="stop942" />
      <stop
         style="stop-color:#ff9100;stop-opacity:1"
         offset="1"
         id="stop944" />
    </linearGradient>
    <linearGradient
       inkscape:collect="always"
       xlink:href="#linearGradient946"
       id="linearGradient1067"
       gradientUnits="userSpaceOnUse"
       gradientTransform="translate(-24.917863,24.989353)"
       x1="297.64273"
       y1="42.326672"
       x2="363.39133"
       y2="173.88435" />
    <linearGradient
       inkscape:collect="always"
       xlink:href="#linearGradient1003"
       id="linearGradient996"
       gradientUnits="userSpaceOnUse"
       x1="255.68486"
       y1="161.52698"
       x2="271.58844"
       y2="161.53539"
       gradientTransform="matrix(1.2201712,0,0,1.2201712,-53.169006,-41.108557)" />
    <linearGradient
       inkscape:collect="always"
       id="linearGradient1003">
      <stop
         style="stop-color:#559eff;stop-opacity:0.99607843"
         offset="0"
         id="stop999" />
      <stop
         style="stop-color:#dd1bba;stop-opacity:0.99607843"
         offset="0.76776659"
         id="stop1005" />
      <stop
         style="stop-color:#ff5d36;stop-opacity:1"
         offset="1"
         id="stop1001" />
    </linearGradient>
    <linearGradient
       inkscape:collect="always"
       xlink:href="#linearGradient1059"
       id="linearGradient1050"
       gradientUnits="userSpaceOnUse"
       gradientTransform="matrix(1.2201712,0,0,1.2201712,-47.298413,-45.989235)"
       x1="255.68486"
       y1="161.52698"
       x2="266.01239"
       y2="161.53748" />
    <linearGradient
       inkscape:collect="always"
       id="linearGradient1059">
      <stop
         style="stop-color:#ec4eff;stop-opacity:0.99607843"
         offset="0"
         id="stop1053" />
      <stop
         style="stop-color:#dd1bba;stop-opacity:0.99607843"
         offset="0.6197108"
         id="stop1055" />
      <stop
         style="stop-color:#ff5d36;stop-opacity:1"
         offset="1"
         id="stop1057" />
    </linearGradient>
  </defs>
  <sodipodi:namedview
     id="base"
     pagecolor="#ffffff"
     bordercolor="#666666"
     borderopacity="1.0"
     inkscape:pageopacity="0"
     inkscape:pageshadow="2"
     inkscape:zoom="0.72291667"
     inkscape:cx="1019.8193"
     inkscape:cy="570.01655"
     inkscape:document-units="mm"
     inkscape:current-layer="layer1"
     inkscape:document-rotation="0"
     showgrid="false"
     units="px"
     inkscape:window-width="1874"
     inkscape:window-height="1056"
     inkscape:window-x="46"
     inkscape:window-y="24"
     inkscape:window-maximized="1" />
  <metadata
     id="metadata5">
    <rdf:RDF>
      <cc:Work
         rdf:about="">
        <dc:format>image/svg+xml</dc:format>
        <dc:type
           rdf:resource="http://purl.org/dc/dcmitype/StillImage" />
        <dc:title></dc:title>
      </cc:Work>
    </rdf:RDF>
  </metadata>
  <g
     inkscape:label="Layer 1"
     inkscape:groupmode="layer"
     id="layer1">
    <rect
       style="fill:#1f003a;stroke-width:0.264583"
       id="rect34"
       width="508"
       height="285.75"
       x="0"
       y="0" />
    <g
       id="g950"
       transform="translate(-8.324003,188.24002)">
      <g
         style="isolation:isolate"
         id="g103"
         transform="matrix(0.35277778,0,0,0.35277778,253.73542,31.928268)">
        <path
           d="m 30.81,44.925 v 0 c 0.215,0.654 -0.143,1.36 -0.8,1.575 0,0 -1.21,0.29 -1.21,0.29 -0.684,0.105 -1.325,-0.363 -1.43,-1.045 v 0 c -0.105,-0.682 0.303,-1.311 0.91,-1.405 0,0 1.09,-0.26 1.09,-0.26 0.58,-0.188 1.225,0.191 1.44,0.845 z m 5.065,-2 v 0 c 0.284,0.626 0.08,1.337 -0.455,1.585 0,0 -1,0.4 -1,0.4 -0.563,0.193 -1.204,-0.179 -1.43,-0.83 v 0 c -0.226,-0.651 0.011,-1.323 0.53,-1.5 0,0 0.93,-0.37 0.93,-0.37 0.502,-0.232 1.141,0.089 1.425,0.715 z M 24.51,44.74 v 0 c 0.69,-0.006 1.254,0.55 1.26,1.24 v 0 c 0.006,0.69 -0.55,1.254 -1.24,1.26 v 0 l -0.52,0.01 c 0,0 -0.01,0 -0.01,0 C 17.84,47.25 11.92,44.8 7.56,40.44 3.2,36.08 0.75,30.16 0.75,24 0.75,19.5 2.06,15.09 4.52,11.32 6.97,7.54 10.47,4.56 14.58,2.74 v 0 c 0.635,-0.281 1.376,0.003 1.655,0.635 v 0 C 16.514,4.007 16.229,4.744 15.6,5.02 v 0 C 11.92,6.65 8.8,9.31 6.61,12.68 4.42,16.05 3.25,19.98 3.25,24 c 0,5.5 2.19,10.78 6.08,14.67 3.88,3.89 9.16,6.08 14.66,6.08 z"
           fill-rule="evenodd"
           fill="url(#_lgradient_1)"
           id="path92"
           style="fill:url(#_lgradient_1)" />
      </g>
      <ellipse
         style="fill:#ffffff;fill-opacity:0;stroke-width:0.27066"
         id="path122"
         ry="8.2361822"
         rx="8.3172226"
         cy="40.394081"
         cx="262.33078" />
    </g>
    <g
       id="g1065"
       transform="matrix(0.44010288,0,0,0.44010288,138.90353,74.945561)">
      <rect
         style="fill:url(#linearGradient962);fill-opacity:1;stroke-width:0.322837"
         id="rect952"
         width="30.612274"
         height="2.4403422"
         x="250.1611"
         y="160.86269"
         ry="1.2201711" />
      <path
         d="m 261.51741,44.93833 c -6.85989,16.784736 -10.97869,27.783748 -18.60356,44.092246 4.67124,4.959953 10.42148,10.740623 19.73848,17.255914 -10.02625,-4.14425 -16.86087,-8.283428 -21.98285,-12.584756 -9.76278,20.397046 -25.06823,49.396716 -56.09944,105.176986 24.40952,-14.08946 43.30184,-22.77315 60.92769,-26.09665 -0.73913,-3.24752 -1.18528,-6.75342 -1.16039,-10.45185 l 0.0192,-0.76497 c 0.39445,-15.64989 8.52158,-27.65203 18.15261,-26.83635 9.63123,0.81572 17.12416,14.1452 16.75441,29.79002 -0.0766,2.92833 -0.42126,5.75028 -1.00337,8.38984 17.44336,3.40457 36.14821,12.05785 60.21326,25.96494 -4.75204,-8.73436 -8.97233,-16.62263 -13.03561,-24.11573 -6.3582,-4.9346 -13.01033,-11.37392 -26.54744,-18.34012 9.31682,2.42678 15.96397,5.2234 21.16197,8.3392 C 278.91367,88.209878 275.61556,78.021493 261.50075,44.933294 Z"
         id="path931"
         style="fill:url(#linearGradient1067);fill-opacity:1;stroke-width:5.06632"
         sodipodi:nodetypes="ccccccccscccccccc" />
      <rect
         style="fill:url(#linearGradient996);fill-opacity:1;stroke-width:0.322837"
         id="rect952-1"
         width="21.963081"
         height="2.4403422"
         x="258.8103"
         y="155.98199"
         ry="1.2201711" />
      <rect
         style="fill:url(#linearGradient1050);fill-opacity:1;stroke-width:0.322837"
         id="rect952-1-9"
         width="14.642054"
         height="2.4403422"
         x="264.68091"
         y="151.10132"
         ry="1.2201711"
         inkscape:transform-center-x="2.5825234"
         inkscape:transform-center-y="3.1852486" />
    </g>
  </g>
</svg>
